HIERARCHY
ROOT SpineBase
{
  OFFSET 0.000000 0.000000 0.000000
  CHANNELS 6 Xposition Yposition Zposition Zrotation Xrotation Yrotation
  JOINT SpineMid
  {
    OFFSET 0.000000 30.691421 0.000000
    CHANNELS 3 Zrotation Xrotation Yrotation
    JOINT SpineShoulder
    {
      OFFSET 0.173374 22.769202 -0.764536
      CHANNELS 3 Zrotation Xrotation Yrotation
      JOINT Neck
      {
        OFFSET 0.123715 7.518766 -0.605908
        CHANNELS 3 Zrotation Xrotation Yrotation
        JOINT Head
        {
          OFFSET -2.203822 11.681944 0.271713
          CHANNELS 3 Zrotation Xrotation Yrotation
          End Site
          {
            OFFSET 0 0 0
          }
        }
      }
      JOINT ShoulderLeft
      {
        OFFSET -17.935903 -5.892998 2.058594
        CHANNELS 3 Zrotation Xrotation Yrotation
        JOINT ElbowLeft
        {
          OFFSET -2.741416 -28.408807 2.381164
          CHANNELS 3 Zrotation Xrotation Yrotation
          JOINT WristLeft
          {
            OFFSET 0.418034 -21.527661 -1.379687
            CHANNELS 3 Zrotation Xrotation Yrotation
            JOINT HandLeft
            {
              OFFSET -0.381742 -5.357851 2.179401
              CHANNELS 3 Zrotation Xrotation Yrotation
              JOINT HandTipLeft
              {
                OFFSET 0.514276 -9.237064 -0.198905
                CHANNELS 3 Zrotation Xrotation Yrotation
                End Site
                {
                  OFFSET 0 0 0
                }
              }
              JOINT ThumbLeft
              {
                OFFSET 3.527848 1.051058 -2.613358
                CHANNELS 3 Zrotation Xrotation Yrotation
                End Site
                {
                  OFFSET 0 0 0
                }
              }
            }
          }
        }
      }
      JOINT ShoulderRight
      {
        OFFSET 14.878283 -3.236824 -3.040773
        CHANNELS 3 Zrotation Xrotation Yrotation
        JOINT ElbowRight
        {
          OFFSET 7.269147 -20.408513 -1.190156
          CHANNELS 3 Zrotation Xrotation Yrotation
          JOINT WristRight
          {
            OFFSET -0.283922 -19.987722 -9.144238
            CHANNELS 3 Zrotation Xrotation Yrotation
            JOINT HandRight
            {
              OFFSET -4.124861 -8.094824 3.151610
              CHANNELS 3 Zrotation Xrotation Yrotation
              JOINT HandTipRight
              {
                OFFSET 1.182803 -8.551296 -4.359339
                CHANNELS 3 Zrotation Xrotation Yrotation
                End Site
                {
                  OFFSET 0 0 0
                }
              }
              JOINT ThumbRight
              {
                OFFSET 2.313886 0.691407 -0.642156
                CHANNELS 3 Zrotation Xrotation Yrotation
                End Site
                {
                  OFFSET 0 0 0
                }
              }
            }
          }
        }
      }
    }
  }
  JOINT HipLeft
  {
    OFFSET -7.416559 -0.090343 -2.749486
    CHANNELS 3 Zrotation Xrotation Yrotation
    JOINT KneeLeft
    {
      OFFSET 4.034167 -29.885832 3.328200
      CHANNELS 3 Zrotation Xrotation Yrotation
      JOINT AnkleLeft
      {
        OFFSET 9.538279 -40.377463 12.538099
        CHANNELS 3 Zrotation Xrotation Yrotation
        JOINT FootLeft
        {
          OFFSET -1.098932 -2.908785 -14.826128
          CHANNELS 3 Zrotation Xrotation Yrotation
          End Site
          {
            OFFSET 0 0 0
          }
        }
      }
    }
  }
  JOINT HipRight
  {
    OFFSET 8.580664 1.800537 -4.942390
    CHANNELS 3 Zrotation Xrotation Yrotation
    JOINT KneeRight
    {
      OFFSET 3.714373 -30.376737 -4.893023
      CHANNELS 3 Zrotation Xrotation Yrotation
      JOINT AnkleRight
      {
        OFFSET 11.551242 -30.111346 0.038773
        CHANNELS 3 Zrotation Xrotation Yrotation
        JOINT FootRight
        {
          OFFSET -3.184572 10.092860 -5.119106
          CHANNELS 3 Zrotation Xrotation Yrotation
          End Site
          {
            OFFSET 0 0 0
          }
        }
      }
    }
  }
}
MOTION
Frames: 16
Frame Time: 0.033333
-50.213084 80.910216 333.751852 -0.000000 0.000000 7.805474 0.000000 0.000000 -7.805474 -0.000000 0.000000 0.000000 -0.000000 0.000000 0.000000 0.000000 0.000000 0.000000 -0.000000 0.000000 0.000000 -0.000000 0.000000 0.000000 -0.000000 0.000000 0.000000 -0.000000 0.000000 0.000000 0.000000 0.000000 0.000000 0.000000 0.000000 0.000000 -0.000000 0.000000 0.000000 -0.000000 0.000000 0.000000 -0.000000 0.000000 0.000000 -0.000000 0.000000 0.000000 0.000000 0.000000 0.000000 0.000000 0.000000 0.000000 0.000000 0.000000 -7.805474 -0.000000 0.000000 0.000000 -0.000000 0.000000 0.000000 0.000000 0.000000 0.000000 0.000000 0.000000 -7.805474 -0.000000 0.000000 0.000000 -0.000000 0.000000 0.000000 0.000000 0.000000 0.000000
-49.913135 81.076890 333.393247 0.251047 0.340405 8.465520 -0.298428 -0.299734 -8.467046 -0.000000 0.000000 0.000000 -0.000000 0.000000 0.000000 0.000000 0.000000 0.000000 -0.353452 -0.781082 0.043302 -0.630974 0.072724 0.008573 -1.517121 7.526678 -1.412220 3.322779 -8.513395 1.667842 0.000000 0.000000 0.000000 0.000000 0.000000 0.000000 -0.000000 0.000000 0.000000 -0.000000 0.000000 0.000000 -4.659277 -4.690621 0.371924 2.021128 3.344235 0.617397 0.000000 0.000000 0.000000 0.000000 0.000000 0.000000 -0.298428 -0.299734 -8.467046 -0.000000 0.000000 0.000000 0.079756 -1.942417 0.359939 0.000000 0.000000 0.000000 -1.020943 -1.081499 -8.486785 0.599299 0.879755 0.006428 -0.133646 1.398895 0.377734 0.000000 0.000000 0.000000
-49.670054 81.218725 333.092389 0.440322 0.612573 9.030414 -0.531035 -0.535847 -9.035251 -0.000000 0.000000 0.000000 -0.000000 0.000000 0.000000 0.000000 0.000000 0.000000 -0.631011 -1.318701 0.067006 -1.068462 0.289227 0.031325 -2.136804 13.264635 -2.150345 5.722591 -15.099197 3.105503 0.000000 0.000000 0.000000 0.000000 0.000000 0.000000 -0.165747 1.124871 0.411939 0.157686 -1.126029 -0.408763 -8.764377 -8.911076 0.417759 3.454172 6.055582 1.312739 0.000000 0.000000 0.000000 0.000000 0.000000 0.000000 -0.531035 -0.535847 -9.035251 -0.000000 0.000000 0.000000 0.201848 -4.056807 0.624821 0.000000 0.000000 0.000000 -1.846909 -1.959127 -9.087933 1.074971 1.612787 0.008899 0.163493 2.517213 0.883135 0.000000 0.000000 0.000000
-49.483842 81.335722 332.849278 0.567314 0.815877 9.501556 -0.694261 -0.710988 -9.509903 -0.000000 0.000000 0.000000 -0.000000 0.000000 0.000000 0.000000 0.000000 0.000000 -0.835422 -1.618531 0.074231 -1.304432 0.660266 0.063400 -2.141022 17.581237 -2.521195 7.247687 -20.178594 4.215348 0.000000 0.000000 0.000000 0.000000 0.000000 0.000000 -0.245276 1.554987 0.571504 0.229841 -1.557343 -0.565051 -11.969108 -12.282230 0.285904 4.290158 7.957884 1.971142 0.000000 0.000000 0.000000 0.000000 0.000000 0.000000 -1.394342 -1.439921 -9.699142 0.567288 0.836351 0.171958 0.365937 -6.359572 0.782846 0.000000 0.000000 0.000000 -2.465155 -2.640577 -9.600696 0.771519 2.682951 0.225683 1.548733 2.897828 1.336155 0.000000 0.000000 0.000000
-49.354497 81.427882 332.663914 0.631640 0.949845 9.880048 -0.124761 -0.242264 -9.871560 -0.007731 -0.059149 0.020369 0.405139 -0.310451 0.009765 0.000000 0.000000 0.000000 -1.512842 -2.313530 0.019929 -1.334348 1.191141 0.100532 -1.663083 20.776192 -2.674894 7.881341 -24.065804 4.912742 0.000000 0.000000 0.000000 0.000000 0.000000 0.000000 -0.863258 1.267336 0.660091 0.298584 -1.901182 -0.689706 -13.997667 -14.551786 0.163691 4.752102 9.084519 2.340832 0.000000 0.000000 0.000000 0.000000 0.000000 0.000000 -1.573952 -1.662166 -10.107880 0.629892 0.960147 0.194516 0.570251 -8.867888 0.820350 0.000000 0.000000 0.000000 -2.865468 -3.132587 -10.018753 1.127057 3.301451 0.302469 2.583514 3.359102 2.039957 0.000000 0.000000 0.000000
-49.282022 81.495203 332.536296 0.633050 1.014150 10.166618 -0.079509 -0.249532 -10.156897 -0.020177 -0.086571 0.021600 0.536726 -0.322554 0.009797 0.000000 0.000000 0.000000 -1.611491 -2.182614 -0.004934 -1.156686 1.881593 0.138854 -0.743763 23.077588 -2.671093 7.549237 -26.985587 5.098574 0.000000 0.000000 0.000000 0.000000 0.000000 0.000000 -0.971715 1.485249 0.753633 0.364518 -2.157762 -0.783000 -14.678000 -15.590721 0.203128 5.139335 9.588443 2.153420 0.000000 0.000000 0.000000 0.000000 0.000000 0.000000 -1.605256 -1.764768 -10.403524 0.631260 1.008758 0.200962 0.810945 -11.599005 0.721373 0.000000 0.000000 0.000000 -3.040144 -3.440519 -10.337701 1.530175 3.780639 0.376237 3.910539 3.606331 2.896053 0.000000 0.000000 0.000000
-49.235502 81.540189 332.455566 0.595760 0.993924 10.325132 -0.005914 -0.220272 -10.313659 -0.046914 -0.114351 0.021109 0.649360 -0.268070 0.016153 0.000000 0.000000 0.000000 -1.582437 -1.595619 -0.052597 -0.711025 2.710173 0.183609 1.761064 25.757743 -2.353031 5.133763 -29.642329 4.206784 0.000000 0.000000 0.000000 0.000000 0.000000 0.000000 -0.889135 1.642307 0.801524 0.274143 -2.307775 -0.832819 -15.387014 -16.848405 0.291366 7.925367 9.917240 0.005465 0.000000 0.000000 0.000000 0.000000 0.000000 0.000000 -1.538709 -1.730147 -10.554131 0.603925 0.986308 0.195247 1.075744 -14.463351 0.419461 0.000000 0.000000 0.000000 -3.089031 -3.559790 -10.511054 2.353366 4.005135 0.363233 6.066682 2.309986 3.931137 0.000000 0.000000 0.000000
-49.277036 81.561220 332.448626 0.471944 0.904318 10.451424 0.103710 -0.182645 -10.438529 -0.607267 -0.743358 -0.018665 1.289466 0.378703 0.037107 0.000000 0.000000 0.000000 -0.910293 -0.222142 -0.056576 -0.008777 3.834003 0.214109 4.275329 27.190606 -1.899736 1.284618 -31.965922 2.298026 0.000000 0.000000 0.000000 0.000000 0.000000 0.000000 -0.350496 2.279648 0.839416 0.317323 -2.284499 -0.826115 -13.176830 -14.570502 0.559220 8.177127 8.628340 -0.976264 0.000000 0.000000 0.000000 0.000000 0.000000 0.000000 -1.246253 -1.568275 -10.641147 -0.004497 0.097490 -0.158368 2.041576 -18.185007 0.245208 0.000000 0.000000 0.000000 -2.785873 -3.485122 -10.648584 2.577067 4.228869 0.463805 7.388919 2.032626 4.690317 0.000000 0.000000 0.000000
-49.375101 81.556028 332.495236 0.301090 0.778024 10.461563 0.226680 -0.140893 -10.448111 -0.549759 -0.680498 -0.016539 1.348107 0.311393 0.023670 0.000000 0.000000 0.000000 -0.743857 0.635837 -0.119561 0.737873 4.958256 0.236107 6.855697 26.868250 -1.091020 -3.518251 -30.988909 -0.438207 0.000000 0.000000 0.000000 0.000000 0.000000 0.000000 -0.511419 2.272669 0.849911 0.478039 -2.279920 -0.830254 -8.968758 -11.237879 1.262792 6.439754 6.841769 -1.771220 0.000000 0.000000 0.000000 0.000000 0.000000 0.000000 -0.437386 -0.710405 -10.466319 -0.492689 -0.903762 -0.369844 2.884968 -28.158362 -1.142624 0.000000 0.000000 0.000000 -2.327822 -3.409902 -10.681806 2.932161 4.580189 0.611719 9.542320 2.529313 6.163362 0.000000 0.000000 0.000000
-49.563571 81.512945 332.614066 0.023101 0.572955 10.370520 -0.125867 -0.559436 -10.371250 -0.000000 0.000000 0.000000 1.498846 0.183609 -0.002621 0.000000 0.000000 0.000000 -0.548027 1.587523 -0.191680 1.489910 5.916733 0.255252 9.613421 26.078904 0.037108 -8.440837 -29.850271 -3.437575 0.000000 0.000000 0.000000 0.000000 0.000000 0.000000 -0.738816 2.200119 0.841988 0.706940 -2.210563 -0.814162 -4.020131 -6.354665 1.397119 3.197297 4.606942 -1.500640 0.000000 0.000000 0.000000 0.000000 0.000000 0.000000 -0.125867 -0.559436 -10.371250 -0.544183 -1.084372 -0.429516 3.246739 -32.583092 -1.891726 0.000000 0.000000 0.000000 -1.473905 -2.991597 -10.593303 2.981952 4.449037 0.721385 11.692881 3.709786 7.719506 0.000000 0.000000 0.000000
-49.796354 81.465648 332.760108 -0.305213 0.346381 10.167951 0.239278 -0.394817 -10.166204 -0.000000 0.000000 0.000000 1.775886 -0.010755 -0.043046 0.000000 0.000000 0.000000 -0.313713 2.554718 -0.266295 2.132262 6.554430 0.275434 12.056779 24.958217 1.318991 -12.922612 -28.273728 -6.234332 0.000000 0.000000 0.000000 0.000000 0.000000 0.000000 -1.150236 2.239064 0.889323 1.730720 -3.171643 -1.090772 -0.403171 -0.497885 1.076996 0.536734 1.192129 -1.218082 0.000000 0.000000 0.000000 0.000000 0.000000 0.000000 0.239278 -0.394817 -10.166204 -0.582204 -1.127269 -0.451977 3.129605 -30.350553 -1.906067 0.000000 0.000000 0.000000 0.503999 -1.848912 -10.413984 0.821216 2.242293 0.544797 13.043107 5.499746 8.316869 0.000000 0.000000 0.000000
-50.073354 81.388159 332.930188 -0.649765 0.083666 9.957474 0.625513 -0.194753 -9.955937 -0.000000 0.000000 0.000000 2.071667 -0.116307 -0.067800 0.000000 0.000000 0.000000 -0.053248 3.403194 -0.332193 2.527168 6.889332 0.299574 14.276284 24.620554 2.414296 -17.361212 -27.600284 -8.951539 0.000000 0.000000 0.000000 0.000000 0.000000 0.000000 -1.417597 2.062921 0.845877 2.621636 -2.433087 -1.308711 1.666432 1.379335 1.143514 -1.105496 1.948433 -1.155725 0.000000 0.000000 0.000000 0.000000 0.000000 0.000000 0.625513 -0.194753 -9.955937 -0.581541 -1.073605 -0.438901 2.211646 -18.048038 -0.287064 0.000000 0.000000 0.000000 1.956156 -0.841951 -10.222598 -0.389627 2.062549 0.896286 14.877125 8.073966 9.646810 0.000000 0.000000 0.000000
-50.339218 81.308133 333.088157 -0.946640 -0.174645 9.823911 0.962556 0.010552 -9.825443 -0.000000 0.000000 0.000000 2.303897 -0.188955 -0.085122 0.000000 0.000000 0.000000 0.137114 4.095070 -0.389959 2.726407 6.877724 0.338364 14.716545 23.224811 3.104670 -17.916305 -25.704535 -9.344341 0.000000 0.000000 0.000000 0.000000 0.000000 0.000000 -1.080775 1.471584 0.602658 1.920745 -1.755856 -0.939800 4.994561 5.202438 -0.116690 -4.962983 -0.226097 0.203035 0.000000 0.000000 0.000000 0.000000 0.000000 0.000000 1.986136 0.076916 -9.682893 -1.498295 -1.183359 -0.529391 2.306051 -20.507779 -0.801585 0.000000 0.000000 0.000000 1.485333 -0.941603 -10.034252 1.891314 4.231116 1.392289 9.326683 12.728748 9.165043 0.000000 0.000000 0.000000
-50.562482 81.223500 333.252204 -1.159190 -0.423848 9.544850 1.213432 0.225688 -9.551528 -0.000000 0.000000 0.000000 2.652657 -0.224066 -0.098367 0.000000 0.000000 0.000000 0.295791 4.556673 -0.428455 2.857643 6.831705 0.359664 13.234761 21.327418 3.136178 -16.586433 -24.154801 -8.443855 0.000000 0.000000 0.000000 0.000000 0.000000 0.000000 -0.714422 0.828075 0.342392 0.817164 -1.869052 -0.366940 7.967693 10.156908 -2.423779 -8.207304 -5.650564 1.655942 0.000000 0.000000 0.000000 0.000000 0.000000 0.000000 2.435190 0.370704 -9.379901 -1.181806 -0.342100 -0.181514 1.624563 -20.828237 -0.444285 0.000000 0.000000 0.000000 0.382192 -0.936916 -9.612930 4.423974 5.631811 1.473670 5.911692 5.845556 6.348554 0.000000 0.000000 0.000000
-50.742301 81.134529 333.383746 -1.300311 -0.650507 9.618509 1.390757 0.423940 -9.631036 -0.000000 0.000000 0.000000 2.991089 -0.434508 -0.139538 0.000000 0.000000 0.000000 0.569733 4.817288 -0.443120 2.549070 6.877414 0.364928 11.569524 18.602063 3.087436 -13.052714 -20.770902 -6.483874 0.000000 0.000000 0.000000 0.000000 0.000000 0.000000 -0.682323 0.415195 0.190513 0.091360 -2.424906 0.097330 9.274431 14.945576 -5.309420 -12.473090 -12.926912 4.185394 0.000000 0.000000 0.000000 0.000000 0.000000 0.000000 2.904734 0.686601 -9.415488 -1.450648 -0.506532 -0.236634 1.240185 -16.399006 0.364753 0.000000 0.000000 0.000000 -0.573639 -0.715113 -9.531845 6.577940 6.827753 1.572755 3.770120 -1.070461 3.958057 0.000000 0.000000 0.000000
-50.866492 81.029254 333.423683 -1.356930 -0.834901 10.045591 0.761867 0.098991 -10.075092 0.156436 -0.366790 -0.007661 3.600609 0.294646 -0.216491 0.000000 0.000000 0.000000 1.234998 5.700322 -0.420935 1.817807 6.905795 0.372099 10.146649 16.084412 2.798272 -10.680214 -19.281544 -5.086136 0.000000 0.000000 0.000000 0.000000 0.000000 0.000000 -0.509213 1.346332 0.228622 -0.173622 -3.683844 0.345704 10.878046 20.053720 -8.329004 -15.142190 -22.228669 5.235857 0.000000 0.000000 0.000000 0.000000 0.000000 0.000000 3.324191 0.906054 -9.805522 -1.760856 -0.629425 -0.291174 0.788048 -11.728878 1.078042 0.000000 0.000000 0.000000 -1.222256 -0.274955 -9.811179 8.019873 7.559243 1.682181 2.945026 -14.929990 0.565077 0.000000 0.000000 0.000000
